<svg xmlns="http://www.w3.org/2000/svg" viewBox="0 0 450 450" x="0px" y="0px">
	<path fill="#f00" stroke="none" d="M451.000000,355.531342C440.172363,364.578369 427.072937,369.077728 414.051666,369.376556C398.526276,369.732880 382.428619,370.762085 367.213348,364.667816C364.164734,363.446777 360.099030,364.814362 356.500214,364.908661C344.843048,365.214050 333.155579,365.053314 321.533020,365.849579C292.651520,367.828247 263.823700,370.647308 234.928345,372.348389C209.900925,373.821747 184.826141,377.850464 159.744080,373.010223C155.534851,372.197937 151.318909,370.918060 147.404358,369.181793C138.201385,365.099792 133.610519,355.615479 137.648621,346.488403C140.738785,339.503876 145.677979,333.217529 150.445358,327.130219C154.812912,321.553467 159.889191,316.492859 164.966568,311.525146C168.134491,308.425598 171.484680,304.836212 175.455414,303.374390C183.682877,300.345428 188.065231,293.559021 193.775162,287.854553C201.466034,280.170990 210.182358,273.524597 218.080032,266.033936C224.432281,260.009094 230.595886,253.698074 236.142715,246.939148C240.527420,241.596298 243.847824,235.380005 247.776688,229.342926C243.567490,227.441895 240.154785,226.049194 235.347168,227.330124C228.238464,229.224121 220.662598,230.719177 213.347382,227.294250C207.758682,224.677704 205.366730,219.751450 207.031113,214.241135C208.590317,209.079025 213.805374,206.512314 219.796295,207.298782C226.189590,208.138046 231.838531,207.640411 236.367798,201.313934C238.858612,197.834732 244.066849,196.021118 248.360672,194.182236C253.946014,191.790207 259.815094,190.041702 265.611542,188.169418C268.685669,187.176453 269.660980,185.059387 270.548828,182.096039C273.923767,170.831757 277.889282,159.744797 281.289825,148.487564C282.376953,144.888824 282.856293,140.964737 282.829468,137.195099C282.693329,118.054390 282.338440,98.914772 281.977814,79.776329C281.820038,71.402130 284.851166,64.535942 291.182343,59.092720C291.810608,58.552547 292.573822,58.096386 293.022949,57.431396C306.114471,38.046875 325.494080,33.250896 347.269928,34.005802C347.926483,34.028564 348.677948,34.062977 349.214691,34.380302C357.962036,39.551559 368.400513,42.564018 373.863220,52.052368C376.384583,56.431896 378.190491,61.373180 379.471558,66.281410C381.337524,73.430779 382.842316,80.732819 383.699524,88.063507C384.158264,91.986549 383.147766,96.144547 382.412689,100.124931C381.774750,103.579224 379.796844,106.928154 379.777283,110.331505C379.650116,132.477539 371.047119,150.432938 356.073792,166.735703C345.805603,177.915573 333.407196,186.208481 322.629425,196.523056C320.958466,198.122223 319.840820,200.398148 318.779388,202.517441C315.366669,209.331238 311.973083,216.160431 308.817383,223.095291C306.282806,228.665253 304.434601,234.561813 301.710785,240.028931C290.406586,262.718567 275.506897,282.769440 256.940887,300.076996C256.093384,300.867065 255.019714,302.499603 255.309921,303.258423C258.472046,311.526520 254.595123,317.768616 249.780075,323.815765C248.955719,324.851105 248.201797,325.942505 246.601715,328.110382C256.158813,326.861511 265.010376,330.490387 273.412476,325.543335C274.798340,324.727356 276.541046,324.227509 278.152557,324.128052C302.176056,322.644989 325.819153,324.638611 349.625580,328.830475C369.565735,332.341614 388.788391,341.045074 409.839386,338.133514C418.188934,336.978699 426.236481,335.940247 433.060303,330.404480C437.989807,326.405518 443.525146,323.868317 450.579254,325.173615C451.000000,335.020905 451.000000,345.041779 451.000000,355.531342M333.012054,106.517540C333.012054,117.537933 333.012054,128.558319 333.012054,139.578705C333.548798,139.782074 334.085571,139.985428 334.622314,140.188797C338.856140,133.985336 343.178314,127.838913 347.250122,121.530861C348.077637,120.248886 348.221344,118.360466 348.237823,116.747078C348.339844,106.776115 348.327637,96.803871 348.327515,86.832047C348.327423,82.169456 345.009521,81.060722 341.364319,80.921532C335.496582,80.697479 331.919342,83.136513 332.035095,87.136909C332.212494,93.270844 332.664978,99.396820 333.012054,106.517540z"/>
	<path fill="#1e96fc" stroke="none" d="M1.000000,276.468658C7.288516,271.759674 13.904817,268.239594 21.783644,269.081726C26.039850,269.536652 30.206650,270.806396 34.422295,271.666809C44.493416,273.722382 54.428272,273.509979 64.508820,271.073578C69.788948,269.797394 75.584282,269.378265 80.918755,270.149841C83.509651,270.524567 86.854736,274.224091 87.503838,276.974182C88.098808,279.494934 86.077652,283.203125 84.184898,285.568420C82.545761,287.616730 79.551147,288.688019 77.011147,289.884277C72.402908,292.054626 67.841263,294.578430 62.972343,295.868103C58.254444,297.117798 53.174572,297.000916 47.695583,297.539062C48.221394,302.942352 48.588127,308.375244 49.328842,313.756622C49.851013,317.550232 52.090275,318.604034 55.753315,317.082794C77.256828,308.152405 95.194817,295.124664 106.479156,274.080475C110.328079,266.902588 115.138184,260.235565 118.907791,253.020935C123.048561,245.095963 126.912170,236.971466 130.166870,228.648560C139.728287,204.198029 144.653610,178.558823 148.952515,152.775436C149.632553,148.696869 150.926712,144.720688 152.115402,139.986359C140.148285,142.818283 128.297577,144.931992 116.885544,148.463348C91.095314,156.443924 65.532387,157.052658 41.040245,145.216415C27.048513,138.454666 15.883947,128.004578 16.000185,110.317947C16.072750,99.276665 23.334873,89.644867 33.944675,86.513512C44.321396,83.450951 55.961906,87.271484 61.499718,96.540871C64.774040,102.021545 69.491776,102.975708 74.836731,103.258476C86.972778,103.900513 98.636414,101.592255 110.087471,97.633224C115.088982,95.904022 120.533211,95.417038 125.475800,93.564140C134.133881,90.318344 142.514008,86.339943 151.093033,82.872505C169.537903,75.417526 187.917145,67.776817 206.545029,60.804733C224.361252,54.136440 241.000031,63.773907 243.558151,81.819191C244.775085,90.403519 241.784775,97.927231 236.246017,104.399063C234.093811,106.913857 231.736420,109.417702 229.018692,111.255386C217.185440,119.256882 211.359985,131.064926 206.711624,144.036057C200.701370,160.807465 199.345520,178.425491 195.815018,195.650253C189.171387,228.063599 181.313446,260.180084 163.434372,288.913513C154.721527,302.915924 146.713928,317.284088 135.699310,329.709930C126.783295,339.768311 116.918465,348.678253 105.052429,355.035706C92.184631,361.929962 79.730049,370.000916 64.963608,372.436432C51.814350,374.605225 38.730442,374.555664 26.221376,369.032684C13.835520,363.564117 6.842395,353.226410 1.286260,341.191101C1.000000,319.645782 1.000000,298.291534 1.000000,276.468658z"/>
</svg>
