<svg version="1.1" id="Layer_1" xmlns="http://www.w3.org/2000/svg" xmlns:xlink="http://www.w3.org/1999/xlink" x="0px" y="0px"
	 width="2rem" height="2rem" viewBox="0 0 450 450" enable-background="new 0 0 450 450" xml:space="preserve">
<path fill="#FFF0" opacity="1.000000" stroke="none" 
	d="
M1.000000,276.000000 
	C1.000000,184.371521 1.000000,92.743042 1.000000,1.057279 
	C150.899307,1.057279 300.798645,1.057279 451.000000,1.057279 
	C451.000000,108.687370 451.000000,216.375031 450.579254,324.704956 
	C443.525146,323.868317 437.989807,326.405518 433.060303,330.404480 
	C426.236481,335.940247 418.188934,336.978699 409.839386,338.133514 
	C388.788391,341.045074 369.565735,332.341614 349.625580,328.830475 
	C325.819153,324.638611 302.176056,322.644989 278.152557,324.128052 
	C276.541046,324.227509 274.798340,324.727356 273.412476,325.543335 
	C265.010376,330.490387 256.158813,326.861511 246.601715,328.110382 
	C248.201797,325.942505 248.955719,324.851105 249.780075,323.815765 
	C254.595123,317.768616 258.472046,311.526520 255.309921,303.258423 
	C255.019714,302.499603 256.093384,300.867065 256.940887,300.076996 
	C275.506897,282.769440 290.406586,262.718567 301.710785,240.028931 
	C304.434601,234.561813 306.282806,228.665253 308.817383,223.095291 
	C311.973083,216.160431 315.366669,209.331238 318.779388,202.517441 
	C319.840820,200.398148 320.958466,198.122223 322.629425,196.523056 
	C333.407196,186.208481 345.805603,177.915573 356.073792,166.735703 
	C371.047119,150.432938 379.650116,132.477539 379.777283,110.331505 
	C379.796844,106.928154 381.774750,103.579224 382.412689,100.124931 
	C383.147766,96.144547 384.158264,91.986549 383.699524,88.063507 
	C382.842316,80.732819 381.337524,73.430779 379.471558,66.281410 
	C378.190491,61.373180 376.384583,56.431896 373.863220,52.052368 
	C368.400513,42.564018 357.962036,39.551559 349.214691,34.380302 
	C348.677948,34.062977 347.926483,34.028564 347.269928,34.005802 
	C325.494080,33.250896 306.114471,38.046875 293.022949,57.431396 
	C292.573822,58.096386 291.810608,58.552547 291.182343,59.092720 
	C284.851166,64.535942 281.820038,71.402130 281.977814,79.776329 
	C282.338440,98.914772 282.693329,118.054390 282.829468,137.195099 
	C282.856293,140.964737 282.376953,144.888824 281.289825,148.487564 
	C277.889282,159.744797 273.923767,170.831757 270.548828,182.096039 
	C269.660980,185.059387 268.685669,187.176453 265.611542,188.169418 
	C259.815094,190.041702 253.946014,191.790207 248.360672,194.182236 
	C244.066849,196.021118 238.858612,197.834732 236.367798,201.313934 
	C231.838531,207.640411 226.189590,208.138046 219.796295,207.298782 
	C213.805374,206.512314 208.590317,209.079025 207.031113,214.241135 
	C205.366730,219.751450 207.758682,224.677704 213.347382,227.294250 
	C220.662598,230.719177 228.238464,229.224121 235.347168,227.330124 
	C240.154785,226.049194 243.567490,227.441895 247.776688,229.342926 
	C243.847824,235.380005 240.527420,241.596298 236.142715,246.939148 
	C230.595886,253.698074 224.432281,260.009094 218.080032,266.033936 
	C210.182358,273.524597 201.466034,280.170990 193.775162,287.854553 
	C188.065231,293.559021 183.682877,300.345428 175.455414,303.374390 
	C171.484680,304.836212 168.134491,308.425598 164.966568,311.525146 
	C159.889191,316.492859 154.812912,321.553467 150.445358,327.130219 
	C145.677979,333.217529 140.738785,339.503876 137.648621,346.488403 
	C133.610519,355.615479 138.201385,365.099792 147.404358,369.181793 
	C151.318909,370.918060 155.534851,372.197937 159.744080,373.010223 
	C184.826141,377.850464 209.900925,373.821747 234.928345,372.348389 
	C263.823700,370.647308 292.651520,367.828247 321.533020,365.849579 
	C333.155579,365.053314 344.843048,365.214050 356.500214,364.908661 
	C360.099030,364.814362 364.164734,363.446777 367.213348,364.667816 
	C382.428619,370.762085 398.526276,369.732880 414.051666,369.376556 
	C427.072937,369.077728 440.172363,364.578369 451.000000,356.000000 
	C451.000000,387.645508 451.000000,419.290985 451.000000,450.968262 
	C301.121429,450.968262 151.242874,450.968262 1.000000,450.968262 
	C1.000000,414.646576 1.000000,378.291962 1.286260,341.659790 
	C6.842395,353.226410 13.835520,363.564117 26.221376,369.032684 
	C38.730442,374.555664 51.814350,374.605225 64.963608,372.436432 
	C79.730049,370.000916 92.184631,361.929962 105.052429,355.035706 
	C116.918465,348.678253 126.783295,339.768311 135.699310,329.709930 
	C146.713928,317.284088 154.721527,302.915924 163.434372,288.913513 
	C181.313446,260.180084 189.171387,228.063599 195.815018,195.650253 
	C199.345520,178.425491 200.701370,160.807465 206.711624,144.036057 
	C211.359985,131.064926 217.185440,119.256882 229.018692,111.255386 
	C231.736420,109.417702 234.093811,106.913857 236.246017,104.399063 
	C241.784775,97.927231 244.775085,90.403519 243.558151,81.819191 
	C241.000031,63.773907 224.361252,54.136440 206.545029,60.804733 
	C187.917145,67.776817 169.537903,75.417526 151.093033,82.872505 
	C142.514008,86.339943 134.133881,90.318344 125.475800,93.564140 
	C120.533211,95.417038 115.088982,95.904022 110.087471,97.633224 
	C98.636414,101.592255 86.972778,103.900513 74.836731,103.258476 
	C69.491776,102.975708 64.774040,102.021545 61.499718,96.540871 
	C55.961906,87.271484 44.321396,83.450951 33.944675,86.513512 
	C23.334873,89.644867 16.072750,99.276665 16.000185,110.317947 
	C15.883947,128.004578 27.048513,138.454666 41.040245,145.216415 
	C65.532387,157.052658 91.095314,156.443924 116.885544,148.463348 
	C128.297577,144.931992 140.148285,142.818283 152.115402,139.986359 
	C150.926712,144.720688 149.632553,148.696869 148.952515,152.775436 
	C144.653610,178.558823 139.728287,204.198029 130.166870,228.648560 
	C126.912170,236.971466 123.048561,245.095963 118.907791,253.020935 
	C115.138184,260.235565 110.328079,266.902588 106.479156,274.080475 
	C95.194817,295.124664 77.256828,308.152405 55.753315,317.082794 
	C52.090275,318.604034 49.851013,317.550232 49.328842,313.756622 
	C48.588127,308.375244 48.221394,302.942352 47.695583,297.539062 
	C53.174572,297.000916 58.254444,297.117798 62.972343,295.868103 
	C67.841263,294.578430 72.402908,292.054626 77.011147,289.884277 
	C79.551147,288.688019 82.545761,287.616730 84.184898,285.568420 
	C86.077652,283.203125 88.098808,279.494934 87.503838,276.974182 
	C86.854736,274.224091 83.509651,270.524567 80.918755,270.149841 
	C75.584282,269.378265 69.788948,269.797394 64.508820,271.073578 
	C54.428272,273.509979 44.493416,273.722382 34.422295,271.666809 
	C30.206650,270.806396 26.039850,269.536652 21.783644,269.081726 
	C13.904817,268.239594 7.288516,271.759674 1.000000,276.000000 
z"/>
<path fill="#f00" opacity="1.000000" stroke="none" 
	d="
M451.000000,355.531342 
	C440.172363,364.578369 427.072937,369.077728 414.051666,369.376556 
	C398.526276,369.732880 382.428619,370.762085 367.213348,364.667816 
	C364.164734,363.446777 360.099030,364.814362 356.500214,364.908661 
	C344.843048,365.214050 333.155579,365.053314 321.533020,365.849579 
	C292.651520,367.828247 263.823700,370.647308 234.928345,372.348389 
	C209.900925,373.821747 184.826141,377.850464 159.744080,373.010223 
	C155.534851,372.197937 151.318909,370.918060 147.404358,369.181793 
	C138.201385,365.099792 133.610519,355.615479 137.648621,346.488403 
	C140.738785,339.503876 145.677979,333.217529 150.445358,327.130219 
	C154.812912,321.553467 159.889191,316.492859 164.966568,311.525146 
	C168.134491,308.425598 171.484680,304.836212 175.455414,303.374390 
	C183.682877,300.345428 188.065231,293.559021 193.775162,287.854553 
	C201.466034,280.170990 210.182358,273.524597 218.080032,266.033936 
	C224.432281,260.009094 230.595886,253.698074 236.142715,246.939148 
	C240.527420,241.596298 243.847824,235.380005 247.776688,229.342926 
	C243.567490,227.441895 240.154785,226.049194 235.347168,227.330124 
	C228.238464,229.224121 220.662598,230.719177 213.347382,227.294250 
	C207.758682,224.677704 205.366730,219.751450 207.031113,214.241135 
	C208.590317,209.079025 213.805374,206.512314 219.796295,207.298782 
	C226.189590,208.138046 231.838531,207.640411 236.367798,201.313934 
	C238.858612,197.834732 244.066849,196.021118 248.360672,194.182236 
	C253.946014,191.790207 259.815094,190.041702 265.611542,188.169418 
	C268.685669,187.176453 269.660980,185.059387 270.548828,182.096039 
	C273.923767,170.831757 277.889282,159.744797 281.289825,148.487564 
	C282.376953,144.888824 282.856293,140.964737 282.829468,137.195099 
	C282.693329,118.054390 282.338440,98.914772 281.977814,79.776329 
	C281.820038,71.402130 284.851166,64.535942 291.182343,59.092720 
	C291.810608,58.552547 292.573822,58.096386 293.022949,57.431396 
	C306.114471,38.046875 325.494080,33.250896 347.269928,34.005802 
	C347.926483,34.028564 348.677948,34.062977 349.214691,34.380302 
	C357.962036,39.551559 368.400513,42.564018 373.863220,52.052368 
	C376.384583,56.431896 378.190491,61.373180 379.471558,66.281410 
	C381.337524,73.430779 382.842316,80.732819 383.699524,88.063507 
	C384.158264,91.986549 383.147766,96.144547 382.412689,100.124931 
	C381.774750,103.579224 379.796844,106.928154 379.777283,110.331505 
	C379.650116,132.477539 371.047119,150.432938 356.073792,166.735703 
	C345.805603,177.915573 333.407196,186.208481 322.629425,196.523056 
	C320.958466,198.122223 319.840820,200.398148 318.779388,202.517441 
	C315.366669,209.331238 311.973083,216.160431 308.817383,223.095291 
	C306.282806,228.665253 304.434601,234.561813 301.710785,240.028931 
	C290.406586,262.718567 275.506897,282.769440 256.940887,300.076996 
	C256.093384,300.867065 255.019714,302.499603 255.309921,303.258423 
	C258.472046,311.526520 254.595123,317.768616 249.780075,323.815765 
	C248.955719,324.851105 248.201797,325.942505 246.601715,328.110382 
	C256.158813,326.861511 265.010376,330.490387 273.412476,325.543335 
	C274.798340,324.727356 276.541046,324.227509 278.152557,324.128052 
	C302.176056,322.644989 325.819153,324.638611 349.625580,328.830475 
	C369.565735,332.341614 388.788391,341.045074 409.839386,338.133514 
	C418.188934,336.978699 426.236481,335.940247 433.060303,330.404480 
	C437.989807,326.405518 443.525146,323.868317 450.579254,325.173615 
	C451.000000,335.020905 451.000000,345.041779 451.000000,355.531342 
M333.012054,106.517540 
	C333.012054,117.537933 333.012054,128.558319 333.012054,139.578705 
	C333.548798,139.782074 334.085571,139.985428 334.622314,140.188797 
	C338.856140,133.985336 343.178314,127.838913 347.250122,121.530861 
	C348.077637,120.248886 348.221344,118.360466 348.237823,116.747078 
	C348.339844,106.776115 348.327637,96.803871 348.327515,86.832047 
	C348.327423,82.169456 345.009521,81.060722 341.364319,80.921532 
	C335.496582,80.697479 331.919342,83.136513 332.035095,87.136909 
	C332.212494,93.270844 332.664978,99.396820 333.012054,106.517540 
z"/>
<path fill="#1e96fc" opacity="1.000000" stroke="none" 
	d="
M1.000000,276.468658 
	C7.288516,271.759674 13.904817,268.239594 21.783644,269.081726 
	C26.039850,269.536652 30.206650,270.806396 34.422295,271.666809 
	C44.493416,273.722382 54.428272,273.509979 64.508820,271.073578 
	C69.788948,269.797394 75.584282,269.378265 80.918755,270.149841 
	C83.509651,270.524567 86.854736,274.224091 87.503838,276.974182 
	C88.098808,279.494934 86.077652,283.203125 84.184898,285.568420 
	C82.545761,287.616730 79.551147,288.688019 77.011147,289.884277 
	C72.402908,292.054626 67.841263,294.578430 62.972343,295.868103 
	C58.254444,297.117798 53.174572,297.000916 47.695583,297.539062 
	C48.221394,302.942352 48.588127,308.375244 49.328842,313.756622 
	C49.851013,317.550232 52.090275,318.604034 55.753315,317.082794 
	C77.256828,308.152405 95.194817,295.124664 106.479156,274.080475 
	C110.328079,266.902588 115.138184,260.235565 118.907791,253.020935 
	C123.048561,245.095963 126.912170,236.971466 130.166870,228.648560 
	C139.728287,204.198029 144.653610,178.558823 148.952515,152.775436 
	C149.632553,148.696869 150.926712,144.720688 152.115402,139.986359 
	C140.148285,142.818283 128.297577,144.931992 116.885544,148.463348 
	C91.095314,156.443924 65.532387,157.052658 41.040245,145.216415 
	C27.048513,138.454666 15.883947,128.004578 16.000185,110.317947 
	C16.072750,99.276665 23.334873,89.644867 33.944675,86.513512 
	C44.321396,83.450951 55.961906,87.271484 61.499718,96.540871 
	C64.774040,102.021545 69.491776,102.975708 74.836731,103.258476 
	C86.972778,103.900513 98.636414,101.592255 110.087471,97.633224 
	C115.088982,95.904022 120.533211,95.417038 125.475800,93.564140 
	C134.133881,90.318344 142.514008,86.339943 151.093033,82.872505 
	C169.537903,75.417526 187.917145,67.776817 206.545029,60.804733 
	C224.361252,54.136440 241.000031,63.773907 243.558151,81.819191 
	C244.775085,90.403519 241.784775,97.927231 236.246017,104.399063 
	C234.093811,106.913857 231.736420,109.417702 229.018692,111.255386 
	C217.185440,119.256882 211.359985,131.064926 206.711624,144.036057 
	C200.701370,160.807465 199.345520,178.425491 195.815018,195.650253 
	C189.171387,228.063599 181.313446,260.180084 163.434372,288.913513 
	C154.721527,302.915924 146.713928,317.284088 135.699310,329.709930 
	C126.783295,339.768311 116.918465,348.678253 105.052429,355.035706 
	C92.184631,361.929962 79.730049,370.000916 64.963608,372.436432 
	C51.814350,374.605225 38.730442,374.555664 26.221376,369.032684 
	C13.835520,363.564117 6.842395,353.226410 1.286260,341.191101 
	C1.000000,319.645782 1.000000,298.291534 1.000000,276.468658 
z"/>
<path fill="#fff0" opacity="1.000000" stroke="none" 
	d="
M333.006378,106.021851 
	C332.664978,99.396820 332.212494,93.270844 332.035095,87.136909 
	C331.919342,83.136513 335.496582,80.697479 341.364319,80.921532 
	C345.009521,81.060722 348.327423,82.169456 348.327515,86.832047 
	C348.327637,96.803871 348.339844,106.776115 348.237823,116.747078 
	C348.221344,118.360466 348.077637,120.248886 347.250122,121.530861 
	C343.178314,127.838913 338.856140,133.985336 334.622314,140.188797 
	C334.085571,139.985428 333.548798,139.782074 333.012054,139.578705 
	C333.012054,128.558319 333.012054,117.537933 333.006378,106.021851 
z"/>
</svg>